<svg width="66" height="66" viewBox="0 0 88 88" fill="none" xmlns="http://www.w3.org/2000/svg">
<g id="Group 114">
<path id="Ellipse 17 (Stroke)" fill-rule="evenodd" clip-rule="evenodd" d="M81.4646 45.9623C80.4349 45.9092 79.6481 45.0311 79.6481 44C79.6481 42.9689 80.4349 42.0908 81.4646 42.0377L85.4098 41.8342C86.6698 41.7693 87.75 42.7383 87.75 44C87.75 45.2617 86.6698 46.2307 85.4098 46.1658L81.4646 45.9623ZM74.8761 26.1709C75.3925 27.0631 76.5138 27.4325 77.432 26.9638L80.9445 25.1704C82.0716 24.595 82.5223 23.2082 81.8885 22.1129C81.2546 21.0176 79.8316 20.7232 78.7709 21.4134L75.4653 23.5645C74.6012 24.1268 74.3598 25.2786 74.8761 26.1709ZM61.8291 13.1239C62.7214 13.6402 63.8732 13.3988 64.4355 12.5347L66.5865 9.22911C67.2768 8.16844 66.9824 6.74536 65.8871 6.11153C64.7918 5.4777 63.405 5.92841 62.8296 7.05548L61.0362 10.568C60.5675 11.4862 60.9369 12.6075 61.8291 13.1239ZM44 8.35185C45.0311 8.35185 45.9092 7.5651 45.9623 6.53537L46.1658 2.59015C46.2307 1.33018 45.2617 0.25 44 0.25C42.7383 0.25 41.7693 1.33017 41.8342 2.59016L42.0377 6.53537C42.0908 7.5651 42.9689 8.35185 44 8.35185ZM26.1709 13.1239C27.0631 12.6075 27.4325 11.4862 26.9638 10.568L25.1704 7.05548C24.595 5.92841 23.2082 5.4777 22.1129 6.11153C21.0176 6.74536 20.7232 8.16844 21.4134 9.22911L23.5645 12.5347C24.1268 13.3988 25.2786 13.6402 26.1709 13.1239ZM13.1239 26.1709C13.6402 25.2786 13.3988 24.1268 12.5347 23.5645L9.22911 21.4135C8.16844 20.7232 6.74536 21.0176 6.11153 22.1129C5.4777 23.2082 5.92841 24.595 7.05548 25.1704L10.568 26.9638C11.4862 27.4325 12.6075 27.0631 13.1239 26.1709ZM6.53537 42.0377C7.5651 42.0908 8.35185 42.9689 8.35185 44C8.35185 45.0311 7.5651 45.9092 6.53537 45.9623L2.59016 46.1658C1.33017 46.2307 0.25 45.2617 0.25 44C0.25 42.7383 1.33018 41.7693 2.59015 41.8342L6.53537 42.0377ZM13.1239 61.8291C12.6075 60.9369 11.4862 60.5675 10.568 61.0362L7.05548 62.8296C5.92841 63.405 5.4777 64.7918 6.11153 65.8871C6.74536 66.9824 8.16844 67.2768 9.22911 66.5865L12.5347 64.4355C13.3988 63.8732 13.6402 62.7214 13.1239 61.8291ZM26.1709 74.8761C25.2786 74.3598 24.1268 74.6012 23.5645 75.4653L21.4135 78.7709C20.7232 79.8316 21.0176 81.2546 22.1129 81.8885C23.2082 82.5223 24.595 82.0716 25.1704 80.9445L26.9638 77.432C27.4325 76.5138 27.0631 75.3925 26.1709 74.8761ZM44 79.6481C42.9689 79.6481 42.0908 80.4349 42.0377 81.4646L41.8342 85.4098C41.7693 86.6698 42.7383 87.75 44 87.75C45.2617 87.75 46.2307 86.6698 46.1658 85.4098L45.9623 81.4646C45.9092 80.4349 45.0311 79.6481 44 79.6481ZM61.8291 74.8761C60.9369 75.3925 60.5675 76.5138 61.0362 77.432L62.8296 80.9445C63.405 82.0716 64.7918 82.5223 65.8871 81.8885C66.9824 81.2546 67.2768 79.8316 66.5866 78.7709L64.4355 75.4653C63.8732 74.6012 62.7214 74.3598 61.8291 74.8761ZM74.8761 61.8291C74.3598 62.7214 74.6012 63.8732 75.4653 64.4355L78.7709 66.5865C79.8316 67.2768 81.2546 66.9824 81.8885 65.8871C82.5223 64.7918 82.0716 63.405 80.9445 62.8296L77.432 61.0362C76.5138 60.5675 75.3925 60.9369 74.8761 61.8291Z" fill="#FFDE33"/>
<path id="Ellipse 17" d="M73.9768 44C73.9768 60.5557 60.5557 73.9768 44 73.9768C27.4442 73.9768 14.0231 60.5557 14.0231 44C14.0231 27.4442 27.4442 14.0231 44 14.0231C60.5557 14.0231 73.9768 27.4442 73.9768 44Z" fill="#FFDE33"/>
</g>
</svg>
